<svg xmlns="http://www.w3.org/2000/svg" viewBox="0 0 600 600">
  <rect width="600" height="600" rx="120" fill="#190682" />
  <path d="M300 150 
           A150 150 0 0 1 375 172
           M375 172
           A150 150 0 0 1 428 228
           M428 228
           A150 150 0 0 1 450 300
           M450 300
           A150 150 0 0 1 428 372
           M428 372
           A150 150 0 0 1 375 428
           M375 428
           A150 150 0 0 1 300 450
           M300 450
           A150 150 0 0 1 225 428
           M225 428
           A150 150 0 0 1 172 372
           M172 372
           A150 150 0 0 1 150 300
           M150 300
           A150 150 0 0 1 172 228
           M172 228
           A150 150 0 0 1 225 172
           M225 172
           A150 150 0 0 1 300 150" 
        stroke="white" stroke-width="40" stroke-linecap="round" fill="none" />
</svg> 